<svg width="32" height="32" viewBox="0 0 32 32" fill="none" xmlns="http://www.w3.org/2000/svg">
<path d="M12 16H17M12 20H17M12 24H17M21 25H24C24.7957 25 25.5587 24.6839 26.1213 24.1213C26.6839 23.5587 27 22.7957 27 22V8.144C27 6.63067 25.8733 5.34667 24.3653 5.22133C23.8667 5.17998 23.3675 5.14442 22.868 5.11467M22.868 5.11467C22.9565 5.40145 23.0001 5.69988 23 6C23 6.26522 22.8946 6.51957 22.7071 6.70711C22.5196 6.89464 22.2652 7 22 7H16C15.448 7 15 6.552 15 6C15 5.692 15.0467 5.39467 15.1333 5.11467M22.868 5.11467C22.4907 3.89067 21.3493 3 20 3H18C17.359 3.00015 16.7349 3.20553 16.219 3.58605C15.7032 3.96658 15.3227 4.50226 15.1333 5.11467M15.1333 5.11467C14.632 5.14533 14.1333 5.18133 13.6347 5.22133C12.1267 5.34667 11 6.63067 11 8.144V11M11 11H6.5C5.672 11 5 11.672 5 12.5V27.5C5 28.328 5.672 29 6.5 29H19.5C20.328 29 21 28.328 21 27.5V12.5C21 11.672 20.328 11 19.5 11H11ZM9 16H9.01067V16.0107H9V16ZM9 20H9.01067V20.0107H9V20ZM9 24H9.01067V24.0107H9V24Z" stroke="#98A0AD" stroke-width="2.4" stroke-linecap="round" stroke-linejoin="round"/>
</svg>
