<svg width="32" height="32" viewBox="0 0 32 32" fill="none" xmlns="http://www.w3.org/2000/svg">
<path d="M15.7104 5.19066C15.8895 5.01178 16.1323 4.9113 16.3854 4.9113C16.6385 4.9113 16.8813 5.01178 17.0604 5.19066L28.1282 16.2584C28.2164 16.3496 28.3218 16.4224 28.4384 16.4724C28.5549 16.5224 28.6803 16.5487 28.8071 16.5497C28.934 16.5507 29.0597 16.5265 29.1771 16.4784C29.2945 16.4303 29.4011 16.3594 29.4907 16.2696C29.5804 16.1799 29.6513 16.0732 29.6992 15.9558C29.7472 15.8384 29.7713 15.7126 29.7702 15.5858C29.769 15.4589 29.7426 15.3336 29.6925 15.2171C29.6424 15.1006 29.5695 14.9952 29.4783 14.9071L18.4117 3.83934C18.1456 3.57324 17.8297 3.36215 17.4821 3.21814C17.1344 3.07412 16.7617 3 16.3854 3C16.0091 3 15.6364 3.07412 15.2888 3.21814C14.9411 3.36215 14.6252 3.57324 14.3591 3.83934L3.29129 14.9071C3.2001 14.9953 3.12738 15.1007 3.07737 15.2173C3.02737 15.3339 3.00107 15.4592 3.00003 15.586C2.99899 15.7129 3.02322 15.8386 3.0713 15.956C3.11939 16.0734 3.19037 16.18 3.2801 16.2696C3.36983 16.3593 3.47651 16.4302 3.59392 16.4781C3.71134 16.5261 3.83713 16.5502 3.96397 16.5491C4.0908 16.5479 4.21613 16.5215 4.33264 16.4714C4.44916 16.4213 4.55453 16.3484 4.6426 16.2572L15.7104 5.19066Z" fill="#E8EAED"/>
<path d="M16.3858 7.21704L26.7773 17.6085C26.8155 17.6467 26.8537 17.6824 26.8932 17.7181V25.612C26.8932 26.9302 25.8234 28 24.5052 28H20.2067C19.9533 28 19.7104 27.8994 19.5312 27.7203C19.3521 27.5411 19.2515 27.2982 19.2515 27.0448V21.3135C19.2515 21.0602 19.1508 20.8172 18.9717 20.6381C18.7925 20.4589 18.5496 20.3583 18.2962 20.3583H14.4754C14.222 20.3583 13.9791 20.4589 13.7999 20.6381C13.6208 20.8172 13.5202 21.0602 13.5202 21.3135V27.0448C13.5202 27.2982 13.4195 27.5411 13.2404 27.7203C13.0612 27.8994 12.8183 28 12.5649 28H8.26646C7.63311 28 7.0257 27.7484 6.57786 27.3006C6.13001 26.8527 5.87842 26.2453 5.87842 25.612V17.7181C5.91804 17.6826 5.95669 17.6461 5.99432 17.6085L16.3858 7.21704Z" fill="#E8EAED"/>
</svg>
