<svg width="32" height="32" viewBox="0 0 32 32" fill="none" xmlns="http://www.w3.org/2000/svg">
<path d="M16.3 16.667L19.3334 14.8337L22.3667 16.667L21.5667 13.2003L24.2334 10.9003L20.7334 10.6003L19.3334 7.33366L17.9334 10.6003L14.4334 10.9003L17.1 13.2003L16.3 16.667ZM16.9334 25.3337H24.4C24.2445 25.9114 23.9778 26.3781 23.6 26.7337C23.2223 27.0892 22.7334 27.3114 22.1334 27.4003L7.60005 29.167C6.86671 29.2781 6.2056 29.1059 5.61671 28.6503C5.02782 28.1948 4.68893 27.6003 4.60005 26.867L2.83338 12.3003C2.74449 11.567 2.92227 10.9114 3.36671 10.3337C3.81116 9.75588 4.40005 9.42255 5.13338 9.33366L6.66671 9.13366V11.8003L5.46671 11.967L7.26671 26.5337L16.9334 25.3337ZM12 22.667C11.2667 22.667 10.6389 22.4059 10.1167 21.8837C9.59449 21.3614 9.33338 20.7337 9.33338 20.0003V5.33366C9.33338 4.60033 9.59449 3.97255 10.1167 3.45033C10.6389 2.9281 11.2667 2.66699 12 2.66699H26.6667C27.4 2.66699 28.0278 2.9281 28.55 3.45033C29.0723 3.97255 29.3334 4.60033 29.3334 5.33366V20.0003C29.3334 20.7337 29.0723 21.3614 28.55 21.8837C28.0278 22.4059 27.4 22.667 26.6667 22.667H12ZM12 20.0003H26.6667V5.33366H12V20.0003Z" fill="#98A0AD"/>
</svg>
