<svg width="32" height="32" viewBox="0 0 32 32" fill="none" xmlns="http://www.w3.org/2000/svg">
<path d="M18.6666 13.1997V10.933C19.4 10.6219 20.15 10.3886 20.9166 10.233C21.6833 10.0775 22.4889 9.99967 23.3333 9.99967C23.9111 9.99967 24.4778 10.0441 25.0333 10.133C25.5889 10.2219 26.1333 10.333 26.6666 10.4663V12.5997C26.1333 12.3997 25.5944 12.2497 25.05 12.1497C24.5055 12.0497 23.9333 11.9997 23.3333 11.9997C22.4889 11.9997 21.6778 12.1052 20.9 12.3163C20.1222 12.5275 19.3778 12.8219 18.6666 13.1997ZM18.6666 20.533V18.2663C19.4 17.9552 20.15 17.7219 20.9166 17.5663C21.6833 17.4108 22.4889 17.333 23.3333 17.333C23.9111 17.333 24.4778 17.3775 25.0333 17.4663C25.5889 17.5552 26.1333 17.6663 26.6666 17.7997V19.933C26.1333 19.733 25.5944 19.583 25.05 19.483C24.5055 19.383 23.9333 19.333 23.3333 19.333C22.4889 19.333 21.6778 19.433 20.9 19.633C20.1222 19.833 19.3778 20.133 18.6666 20.533ZM18.6666 16.8663V14.5997C19.4 14.2886 20.15 14.0552 20.9166 13.8997C21.6833 13.7441 22.4889 13.6663 23.3333 13.6663C23.9111 13.6663 24.4778 13.7108 25.0333 13.7997C25.5889 13.8886 26.1333 13.9997 26.6666 14.133V16.2663C26.1333 16.0663 25.5944 15.9163 25.05 15.8163C24.5055 15.7163 23.9333 15.6663 23.3333 15.6663C22.4889 15.6663 21.6778 15.7719 20.9 15.983C20.1222 16.1941 19.3778 16.4886 18.6666 16.8663ZM8.66665 21.333C9.71109 21.333 10.7278 21.4497 11.7166 21.683C12.7055 21.9163 13.6889 22.2663 14.6666 22.733V9.59967C13.7555 9.06634 12.7889 8.66634 11.7666 8.39967C10.7444 8.13301 9.71109 7.99967 8.66665 7.99967C7.86665 7.99967 7.0722 8.07745 6.28331 8.23301C5.49442 8.38856 4.73331 8.6219 3.99998 8.93301V22.133C4.77776 21.8663 5.54998 21.6663 6.31665 21.533C7.08331 21.3997 7.86665 21.333 8.66665 21.333ZM17.3333 22.733C18.3111 22.2663 19.2944 21.9163 20.2833 21.683C21.2722 21.4497 22.2889 21.333 23.3333 21.333C24.1333 21.333 24.9166 21.3997 25.6833 21.533C26.45 21.6663 27.2222 21.8663 28 22.133V8.93301C27.2666 8.6219 26.5055 8.38856 25.7166 8.23301C24.9278 8.07745 24.1333 7.99967 23.3333 7.99967C22.2889 7.99967 21.2555 8.13301 20.2333 8.39967C19.2111 8.66634 18.2444 9.06634 17.3333 9.59967V22.733ZM16 26.6663C14.9333 25.8219 13.7778 25.1663 12.5333 24.6997C11.2889 24.233 9.99998 23.9997 8.66665 23.9997C7.73331 23.9997 6.81665 24.1219 5.91665 24.3663C5.01665 24.6108 4.15554 24.9552 3.33331 25.3997C2.86665 25.6441 2.41665 25.633 1.98331 25.3663C1.54998 25.0997 1.33331 24.7108 1.33331 24.1997V8.13301C1.33331 7.88856 1.39442 7.65523 1.51665 7.43301C1.63887 7.21079 1.8222 7.04412 2.06665 6.93301C3.08887 6.39967 4.15554 5.99967 5.26665 5.73301C6.37776 5.46634 7.51109 5.33301 8.66665 5.33301C9.95554 5.33301 11.2166 5.49967 12.45 5.83301C13.6833 6.16634 14.8666 6.66634 16 7.33301C17.1333 6.66634 18.3166 6.16634 19.55 5.83301C20.7833 5.49967 22.0444 5.33301 23.3333 5.33301C24.4889 5.33301 25.6222 5.46634 26.7333 5.73301C27.8444 5.99967 28.9111 6.39967 29.9333 6.93301C30.1778 7.04412 30.3611 7.21079 30.4833 7.43301C30.6055 7.65523 30.6666 7.88856 30.6666 8.13301V24.1997C30.6666 24.7108 30.45 25.0997 30.0166 25.3663C29.5833 25.633 29.1333 25.6441 28.6666 25.3997C27.8444 24.9552 26.9833 24.6108 26.0833 24.3663C25.1833 24.1219 24.2666 23.9997 23.3333 23.9997C22 23.9997 20.7111 24.233 19.4666 24.6997C18.2222 25.1663 17.0666 25.8219 16 26.6663Z" fill="#E8EAED"/>
</svg>
