<svg width="32" height="32" viewBox="0 0 32 32" fill="none" xmlns="http://www.w3.org/2000/svg">
<path d="M7.79999 22.8003C8.93332 21.9337 10.2 21.2503 11.6 20.7503C13 20.2503 14.4667 20.0003 16 20.0003C17.5333 20.0003 19 20.2503 20.4 20.7503C21.8 21.2503 23.0667 21.9337 24.2 22.8003C24.9778 21.8892 25.5833 20.8559 26.0167 19.7003C26.45 18.5448 26.6667 17.3114 26.6667 16.0003C26.6667 13.0448 25.6278 10.5281 23.55 8.45033C21.4722 6.37255 18.9555 5.33366 16 5.33366C13.0444 5.33366 10.5278 6.37255 8.44999 8.45033C6.37221 10.5281 5.33332 13.0448 5.33332 16.0003C5.33332 17.3114 5.54999 18.5448 5.98332 19.7003C6.41666 20.8559 7.02221 21.8892 7.79999 22.8003ZM16 17.3337C14.6889 17.3337 13.5833 16.8837 12.6833 15.9837C11.7833 15.0837 11.3333 13.9781 11.3333 12.667C11.3333 11.3559 11.7833 10.2503 12.6833 9.35033C13.5833 8.45033 14.6889 8.00033 16 8.00033C17.3111 8.00033 18.4167 8.45033 19.3167 9.35033C20.2167 10.2503 20.6667 11.3559 20.6667 12.667C20.6667 13.9781 20.2167 15.0837 19.3167 15.9837C18.4167 16.8837 17.3111 17.3337 16 17.3337ZM16 29.3337C14.1555 29.3337 12.4222 28.9837 10.8 28.2837C9.17777 27.5837 7.76666 26.6337 6.56666 25.4337C5.36666 24.2337 4.41666 22.8225 3.71666 21.2003C3.01666 19.5781 2.66666 17.8448 2.66666 16.0003C2.66666 14.1559 3.01666 12.4225 3.71666 10.8003C4.41666 9.1781 5.36666 7.76699 6.56666 6.56699C7.76666 5.36699 9.17777 4.41699 10.8 3.71699C12.4222 3.01699 14.1555 2.66699 16 2.66699C17.8444 2.66699 19.5778 3.01699 21.2 3.71699C22.8222 4.41699 24.2333 5.36699 25.4333 6.56699C26.6333 7.76699 27.5833 9.1781 28.2833 10.8003C28.9833 12.4225 29.3333 14.1559 29.3333 16.0003C29.3333 17.8448 28.9833 19.5781 28.2833 21.2003C27.5833 22.8225 26.6333 24.2337 25.4333 25.4337C24.2333 26.6337 22.8222 27.5837 21.2 28.2837C19.5778 28.9837 17.8444 29.3337 16 29.3337ZM16 26.667C17.1778 26.667 18.2889 26.4948 19.3333 26.1503C20.3778 25.8059 21.3333 25.3114 22.2 24.667C21.3333 24.0225 20.3778 23.5281 19.3333 23.1837C18.2889 22.8392 17.1778 22.667 16 22.667C14.8222 22.667 13.7111 22.8392 12.6667 23.1837C11.6222 23.5281 10.6667 24.0225 9.79999 24.667C10.6667 25.3114 11.6222 25.8059 12.6667 26.1503C13.7111 26.4948 14.8222 26.667 16 26.667ZM16 14.667C16.5778 14.667 17.0555 14.4781 17.4333 14.1003C17.8111 13.7225 18 13.2448 18 12.667C18 12.0892 17.8111 11.6114 17.4333 11.2337C17.0555 10.8559 16.5778 10.667 16 10.667C15.4222 10.667 14.9444 10.8559 14.5667 11.2337C14.1889 11.6114 14 12.0892 14 12.667C14 13.2448 14.1889 13.7225 14.5667 14.1003C14.9444 14.4781 15.4222 14.667 16 14.667Z" fill="#98A0AD"/>
</svg>
