<svg width="2810" height="1080" viewBox="0 0 2810 1080" fill="none" xmlns="http://www.w3.org/2000/svg">
<path d="M533.114 349.411C559.429 349.411 580.761 370.743 580.761 397.058L580.761 412.941L318.703 412.941C301.16 412.941 286.938 398.719 286.938 381.176C286.938 363.633 301.159 349.411 318.703 349.411L533.114 349.411Z" fill="#202938"/>
<path d="M292.735 635.294L292.735 651.176C292.735 677.491 314.067 698.823 340.382 698.823L761.264 698.823C778.807 698.823 793.029 684.602 793.029 667.059C793.029 649.516 778.807 635.294 761.264 635.294L292.735 635.294Z" fill="#202938"/>
<path d="M723.703 786.176L723.703 857.646L199.585 857.646C177.656 857.646 159.879 839.869 159.879 817.94L159.879 786.176L723.703 786.176Z" fill="#202938"/>
<rect x="739.585" y="476.47" width="71.4706" height="428.824" transform="rotate(90 739.585 476.47)" fill="#202938"/>
<path d="M676.056 222.353C697.985 222.353 715.761 240.129 715.761 262.058L715.761 285.882L318.703 285.882L318.703 222.353L676.056 222.353Z" fill="#202938"/>
<path fill-rule="evenodd" clip-rule="evenodd" d="M729.532 476.47C834.791 476.47 920.121 561.799 920.121 667.058C920.121 772.317 834.791 857.646 729.532 857.646C669.346 857.646 615.677 829.746 580.749 786.176H728.47V786.169C728.823 786.172 729.178 786.176 729.532 786.176C795.319 786.176 848.65 732.844 848.65 667.058C848.65 601.271 795.319 547.94 729.532 547.94C729.178 547.94 728.823 547.943 728.47 547.946V547.94H580.749C615.677 504.37 669.346 476.47 729.532 476.47Z" fill="#202938"/>
<path d="M322.673 222.353C375.216 222.353 421.944 247.246 451.709 285.882H318.702C266.073 285.882 223.409 328.547 223.408 381.176C223.408 433.805 266.073 476.47 318.702 476.47H457.456C428.175 519.602 378.734 547.94 322.673 547.94C232.764 547.94 159.879 475.055 159.879 385.146C159.879 295.238 232.765 222.353 322.673 222.353Z" fill="#202938"/>
<path d="M1197.33 706.357C1172.25 706.357 1148.94 701.766 1127.4 692.583C1106.21 683.401 1087.85 670.687 1072.31 654.441C1057.12 637.842 1046 618.594 1038.93 596.697L1098.79 570.739C1108.33 593.342 1122.1 611.177 1140.12 624.245C1158.13 636.959 1178.43 643.316 1201.04 643.316C1213.75 643.316 1224.7 641.374 1233.88 637.489C1243.42 633.251 1250.66 627.6 1255.6 620.536C1260.9 613.473 1263.55 604.997 1263.55 595.108C1263.55 583.453 1260.02 573.918 1252.95 566.501C1246.24 558.731 1236 552.727 1222.23 548.489L1146.47 524.121C1115.75 514.585 1092.61 500.281 1077.07 481.21C1061.53 462.139 1053.76 439.713 1053.76 413.931C1053.76 391.328 1059.24 371.374 1070.19 354.068C1081.49 336.763 1097.03 323.342 1116.81 313.807C1136.94 303.918 1159.89 298.974 1185.67 298.974C1209.34 298.974 1231.06 303.212 1250.83 311.688C1270.61 319.811 1287.56 331.289 1301.69 346.122C1316.17 360.602 1326.94 377.731 1334.01 397.508L1274.67 423.996C1266.9 404.219 1255.25 389.032 1239.71 378.437C1224.17 367.489 1206.16 362.015 1185.67 362.015C1173.67 362.015 1163.07 364.134 1153.89 368.372C1144.71 372.257 1137.47 377.907 1132.17 385.324C1127.22 392.388 1124.75 400.864 1124.75 410.752C1124.75 421.701 1128.28 431.413 1135.35 439.889C1142.41 448.012 1153.18 454.369 1167.66 458.96L1240.24 481.74C1271.67 491.982 1295.16 506.109 1310.7 524.121C1326.59 542.132 1334.54 564.382 1334.54 590.87C1334.54 613.473 1328.71 633.427 1317.05 650.733C1305.4 668.038 1289.33 681.635 1268.85 691.524C1248.36 701.413 1224.52 706.357 1197.33 706.357ZM1362.33 700V305.331H1434.37V700H1362.33ZM1660.21 706.357C1631.96 706.357 1605.82 701.236 1581.8 690.994C1557.79 680.752 1536.78 666.449 1518.76 648.084C1500.75 629.719 1486.63 608.175 1476.38 583.453C1466.49 558.731 1461.55 531.714 1461.55 502.4C1461.55 473.087 1466.32 446.07 1475.85 421.348C1485.74 396.272 1499.52 374.729 1517.17 356.717C1535.19 338.352 1556.2 324.225 1580.22 314.337C1604.23 304.095 1630.37 298.974 1658.62 298.974C1686.87 298.974 1712.13 303.741 1734.37 313.277C1756.98 322.813 1776.05 335.527 1791.59 351.42C1807.13 366.959 1818.25 384.088 1824.96 402.806L1760.86 433.532C1753.45 413.048 1740.91 396.449 1723.25 383.735C1705.59 371.021 1684.05 364.664 1658.62 364.664C1633.9 364.664 1612 370.491 1592.93 382.146C1574.21 393.8 1559.55 409.869 1548.96 430.353C1538.72 450.837 1533.6 474.853 1533.6 502.4C1533.6 529.948 1538.89 554.14 1549.49 574.977C1560.44 595.461 1575.45 611.531 1594.52 623.185C1613.59 634.84 1635.49 640.667 1660.21 640.667C1680.34 640.667 1698.88 636.782 1715.83 629.013C1732.79 620.89 1746.38 609.588 1756.62 595.108C1766.87 580.275 1771.99 562.793 1771.99 542.662V512.466L1804.83 541.073H1658.62V480.151H1844.03V519.882C1844.03 550.255 1838.91 577.096 1828.67 600.406C1818.43 623.715 1804.48 643.316 1786.82 659.209C1769.52 674.748 1749.91 686.579 1728.02 694.702C1706.12 702.472 1683.52 706.357 1660.21 706.357ZM1863.96 700V305.331H1932.83L2080.63 506.109H2047.79L2192.41 305.331H2261.28V700H2188.7V387.443L2216.78 394.33L2066.86 594.049H2058.38L1912.17 394.33L1936.01 387.443V700H1863.96ZM2267.41 700L2403.56 305.331H2496.8L2632.95 700H2554.54L2526.47 615.239H2373.9L2345.29 700H2267.41ZM2394.56 551.668H2505.81L2440.12 355.128H2460.25L2394.56 551.668Z" fill="#202938"/>
<path d="M1056.72 857C1055.39 857 1054.06 856.867 1052.72 856.6C1051.46 856.4 1050.29 856.067 1049.22 855.6V845.9C1050.02 846.1 1050.99 846.267 1052.12 846.4C1053.26 846.6 1054.36 846.7 1055.42 846.7C1058.56 846.7 1060.86 846 1062.32 844.6C1063.86 843.267 1065.22 841.2 1066.42 838.4L1070.02 830.2L1069.82 839.7L1046.42 780.9H1058.52L1075.82 826H1071.72L1088.92 780.9H1101.12L1077.22 840.9C1075.96 844.1 1074.36 846.9 1072.42 849.3C1070.56 851.767 1068.32 853.667 1065.72 855C1063.19 856.333 1060.19 857 1056.72 857ZM1130.98 836.2C1125.78 836.2 1121.01 834.967 1116.68 832.5C1112.41 830.033 1109.01 826.667 1106.48 822.4C1103.95 818.133 1102.68 813.3 1102.68 807.9C1102.68 802.433 1103.95 797.6 1106.48 793.4C1109.01 789.133 1112.41 785.8 1116.68 783.4C1120.95 780.933 1125.71 779.7 1130.98 779.7C1136.31 779.7 1141.08 780.933 1145.28 783.4C1149.55 785.8 1152.91 789.133 1155.38 793.4C1157.91 797.6 1159.18 802.433 1159.18 807.9C1159.18 813.367 1157.91 818.233 1155.38 822.5C1152.85 826.767 1149.45 830.133 1145.18 832.6C1140.91 835 1136.18 836.2 1130.98 836.2ZM1130.98 825.7C1134.18 825.7 1137.01 824.933 1139.48 823.4C1141.95 821.867 1143.88 819.767 1145.28 817.1C1146.75 814.367 1147.48 811.3 1147.48 807.9C1147.48 804.5 1146.75 801.467 1145.28 798.8C1143.88 796.133 1141.95 794.033 1139.48 792.5C1137.01 790.967 1134.18 790.2 1130.98 790.2C1127.85 790.2 1125.01 790.967 1122.48 792.5C1120.01 794.033 1118.05 796.133 1116.58 798.8C1115.18 801.467 1114.48 804.5 1114.48 807.9C1114.48 811.3 1115.18 814.367 1116.58 817.1C1118.05 819.767 1120.01 821.867 1122.48 823.4C1125.01 824.933 1127.85 825.7 1130.98 825.7ZM1186.51 836.2C1182.45 836.2 1178.88 835.3 1175.81 833.5C1172.75 831.633 1170.35 829.067 1168.61 825.8C1166.95 822.467 1166.11 818.633 1166.11 814.3V780.9H1177.41V813.3C1177.41 815.767 1177.91 817.933 1178.91 819.8C1179.91 821.667 1181.31 823.133 1183.11 824.2C1184.91 825.2 1186.98 825.7 1189.31 825.7C1191.71 825.7 1193.81 825.167 1195.61 824.1C1197.41 823.033 1198.81 821.533 1199.81 819.6C1200.88 817.667 1201.41 815.4 1201.41 812.8V780.9H1212.61V835H1201.91V824.4L1203.11 825.8C1201.85 829.133 1199.75 831.7 1196.81 833.5C1193.88 835.3 1190.45 836.2 1186.51 836.2ZM1222.81 835V780.9H1233.61V791.8L1232.61 790.2C1233.81 786.667 1235.74 784.133 1238.41 782.6C1241.07 781 1244.27 780.2 1248.01 780.2H1251.31V790.5H1246.61C1242.87 790.5 1239.84 791.667 1237.51 794C1235.24 796.267 1234.11 799.533 1234.11 803.8V835H1222.81ZM1270.52 835V780.9H1281.32V791.8L1280.32 790.2C1281.52 786.667 1283.45 784.133 1286.12 782.6C1288.78 781 1291.98 780.2 1295.72 780.2H1299.02V790.5H1294.32C1290.58 790.5 1287.55 791.667 1285.22 794C1282.95 796.267 1281.82 799.533 1281.82 803.8V835H1270.52ZM1329.15 836.2C1323.75 836.2 1318.95 834.967 1314.75 832.5C1310.62 829.967 1307.38 826.567 1305.05 822.3C1302.72 817.967 1301.55 813.133 1301.55 807.8C1301.55 802.333 1302.72 797.5 1305.05 793.3C1307.45 789.1 1310.65 785.8 1314.65 783.4C1318.65 780.933 1323.18 779.7 1328.25 779.7C1332.32 779.7 1335.95 780.4 1339.15 781.8C1342.35 783.2 1345.05 785.133 1347.25 787.6C1349.45 790 1351.12 792.767 1352.25 795.9C1353.45 799.033 1354.05 802.367 1354.05 805.9C1354.05 806.767 1354.02 807.667 1353.95 808.6C1353.88 809.533 1353.75 810.4 1353.55 811.2H1310.45V802.2H1347.15L1341.75 806.3C1342.42 803.033 1342.18 800.133 1341.05 797.6C1339.98 795 1338.32 792.967 1336.05 791.5C1333.85 789.967 1331.25 789.2 1328.25 789.2C1325.25 789.2 1322.58 789.967 1320.25 791.5C1317.92 792.967 1316.12 795.1 1314.85 797.9C1313.58 800.633 1313.08 803.967 1313.35 807.9C1313.02 811.567 1313.52 814.767 1314.85 817.5C1316.25 820.233 1318.18 822.367 1320.65 823.9C1323.18 825.433 1326.05 826.2 1329.25 826.2C1332.52 826.2 1335.28 825.467 1337.55 824C1339.88 822.533 1341.72 820.633 1343.05 818.3L1352.25 822.8C1351.18 825.333 1349.52 827.633 1347.25 829.7C1345.05 831.7 1342.38 833.3 1339.25 834.5C1336.18 835.633 1332.82 836.2 1329.15 836.2ZM1377.79 836.2C1374.12 836.2 1370.89 835.567 1368.09 834.3C1365.35 832.967 1363.22 831.167 1361.69 828.9C1360.15 826.567 1359.39 823.833 1359.39 820.7C1359.39 817.767 1360.02 815.133 1361.29 812.8C1362.62 810.467 1364.65 808.5 1367.39 806.9C1370.12 805.3 1373.55 804.167 1377.69 803.5L1396.49 800.4V809.3L1379.89 812.2C1376.89 812.733 1374.69 813.7 1373.29 815.1C1371.89 816.433 1371.19 818.167 1371.19 820.3C1371.19 822.367 1371.95 824.067 1373.49 825.4C1375.09 826.667 1377.12 827.3 1379.59 827.3C1382.65 827.3 1385.32 826.633 1387.59 825.3C1389.92 823.967 1391.72 822.2 1392.99 820C1394.25 817.733 1394.89 815.233 1394.89 812.5V798.6C1394.89 795.933 1393.89 793.767 1391.89 792.1C1389.95 790.367 1387.35 789.5 1384.09 789.5C1381.09 789.5 1378.45 790.3 1376.19 791.9C1373.99 793.433 1372.35 795.433 1371.29 797.9L1361.89 793.2C1362.89 790.533 1364.52 788.2 1366.79 786.2C1369.05 784.133 1371.69 782.533 1374.69 781.4C1377.75 780.267 1380.99 779.7 1384.39 779.7C1388.65 779.7 1392.42 780.5 1395.69 782.1C1399.02 783.7 1401.59 785.933 1403.39 788.8C1405.25 791.6 1406.19 794.867 1406.19 798.6V835H1395.39V825.2L1397.69 825.5C1396.42 827.7 1394.79 829.6 1392.79 831.2C1390.85 832.8 1388.62 834.033 1386.09 834.9C1383.62 835.767 1380.85 836.2 1377.79 836.2ZM1441.4 836.2C1436.2 836.2 1431.53 834.967 1427.4 832.5C1423.33 829.967 1420.1 826.567 1417.7 822.3C1415.37 818.033 1414.2 813.233 1414.2 807.9C1414.2 802.567 1415.4 797.767 1417.8 793.5C1420.2 789.233 1423.43 785.867 1427.5 783.4C1431.57 780.933 1436.17 779.7 1441.3 779.7C1445.63 779.7 1449.47 780.567 1452.8 782.3C1456.13 784.033 1458.77 786.433 1460.7 789.5L1459 792.1V759.3H1470.2V835H1459.5V824L1460.8 826.1C1458.93 829.367 1456.27 831.867 1452.8 833.6C1449.33 835.333 1445.53 836.2 1441.4 836.2ZM1442.5 825.7C1445.63 825.7 1448.43 824.933 1450.9 823.4C1453.43 821.867 1455.4 819.767 1456.8 817.1C1458.27 814.367 1459 811.3 1459 807.9C1459 804.5 1458.27 801.467 1456.8 798.8C1455.4 796.133 1453.43 794.033 1450.9 792.5C1448.43 790.967 1445.63 790.2 1442.5 790.2C1439.37 790.2 1436.53 790.967 1434 792.5C1431.47 794.033 1429.5 796.133 1428.1 798.8C1426.7 801.467 1426 804.5 1426 807.9C1426 811.3 1426.7 814.367 1428.1 817.1C1429.5 819.767 1431.43 821.867 1433.9 823.4C1436.43 824.933 1439.3 825.7 1442.5 825.7ZM1480.39 835V780.9H1491.69V835H1480.39ZM1480.39 773.5V760.5H1491.69V773.5H1480.39ZM1501.9 835V780.9H1512.7V791.5L1511.4 790.1C1512.74 786.7 1514.87 784.133 1517.8 782.4C1520.74 780.6 1524.14 779.7 1528 779.7C1532 779.7 1535.54 780.567 1538.6 782.3C1541.67 784.033 1544.07 786.433 1545.8 789.5C1547.54 792.567 1548.4 796.1 1548.4 800.1V835H1537.2V803.1C1537.2 800.367 1536.7 798.067 1535.7 796.2C1534.7 794.267 1533.27 792.8 1531.4 791.8C1529.6 790.733 1527.54 790.2 1525.2 790.2C1522.87 790.2 1520.77 790.733 1518.9 791.8C1517.1 792.8 1515.7 794.267 1514.7 796.2C1513.7 798.133 1513.2 800.433 1513.2 803.1V835H1501.9ZM1583.6 857C1579.67 857 1576.03 856.367 1572.7 855.1C1569.37 853.833 1566.5 852.067 1564.1 849.8C1561.7 847.6 1559.9 845 1558.7 842L1569.1 837.7C1570.03 840.233 1571.73 842.333 1574.2 844C1576.73 845.667 1579.83 846.5 1583.5 846.5C1586.37 846.5 1588.93 845.933 1591.2 844.8C1593.47 843.733 1595.27 842.133 1596.6 840C1597.93 837.933 1598.6 835.433 1598.6 832.5V820.3L1600.6 822.6C1598.73 826.067 1596.13 828.7 1592.8 830.5C1589.53 832.3 1585.83 833.2 1581.7 833.2C1576.7 833.2 1572.2 832.033 1568.2 829.7C1564.2 827.367 1561.03 824.167 1558.7 820.1C1556.43 816.033 1555.3 811.467 1555.3 806.4C1555.3 801.267 1556.43 796.7 1558.7 792.7C1561.03 788.7 1564.17 785.533 1568.1 783.2C1572.03 780.867 1576.53 779.7 1581.6 779.7C1585.73 779.7 1589.4 780.6 1592.6 782.4C1595.87 784.133 1598.53 786.667 1600.6 790L1599.1 792.8V780.9H1609.8V832.5C1609.8 837.167 1608.67 841.333 1606.4 845C1604.2 848.733 1601.13 851.667 1597.2 853.8C1593.27 855.933 1588.73 857 1583.6 857ZM1583 822.7C1586 822.7 1588.67 822 1591 820.6C1593.33 819.133 1595.17 817.2 1596.5 814.8C1597.9 812.333 1598.6 809.567 1598.6 806.5C1598.6 803.433 1597.9 800.667 1596.5 798.2C1595.1 795.733 1593.23 793.8 1590.9 792.4C1588.57 790.933 1585.93 790.2 1583 790.2C1579.93 790.2 1577.2 790.933 1574.8 792.4C1572.4 793.8 1570.5 795.733 1569.1 798.2C1567.77 800.6 1567.1 803.367 1567.1 806.5C1567.1 809.5 1567.77 812.233 1569.1 814.7C1570.5 817.167 1572.4 819.133 1574.8 820.6C1577.2 822 1579.93 822.7 1583 822.7ZM1624.13 786.6L1622.63 760.5H1633.13L1631.63 786.6H1624.13ZM1665.93 836.2C1660.4 836.2 1655.53 834.833 1651.33 832.1C1647.2 829.367 1644.3 825.7 1642.63 821.1L1651.33 817C1652.8 820.067 1654.8 822.5 1657.33 824.3C1659.93 826.1 1662.8 827 1665.93 827C1668.6 827 1670.77 826.4 1672.43 825.2C1674.1 824 1674.93 822.367 1674.93 820.3C1674.93 818.967 1674.57 817.9 1673.83 817.1C1673.1 816.233 1672.17 815.533 1671.03 815C1669.97 814.467 1668.87 814.067 1667.73 813.8L1659.23 811.4C1654.57 810.067 1651.07 808.067 1648.73 805.4C1646.47 802.667 1645.33 799.5 1645.33 795.9C1645.33 792.633 1646.17 789.8 1647.83 787.4C1649.5 784.933 1651.8 783.033 1654.73 781.7C1657.67 780.367 1660.97 779.7 1664.63 779.7C1669.57 779.7 1673.97 780.933 1677.83 783.4C1681.7 785.8 1684.43 789.167 1686.03 793.5L1677.33 797.6C1676.27 795 1674.57 792.933 1672.23 791.4C1669.97 789.867 1667.4 789.1 1664.53 789.1C1662.07 789.1 1660.1 789.7 1658.63 790.9C1657.17 792.033 1656.43 793.533 1656.43 795.4C1656.43 796.667 1656.77 797.733 1657.43 798.6C1658.1 799.4 1658.97 800.067 1660.03 800.6C1661.1 801.067 1662.2 801.467 1663.33 801.8L1672.13 804.4C1676.6 805.667 1680.03 807.667 1682.43 810.4C1684.83 813.067 1686.03 816.267 1686.03 820C1686.03 823.2 1685.17 826.033 1683.43 828.5C1681.77 830.9 1679.43 832.8 1676.43 834.2C1673.43 835.533 1669.93 836.2 1665.93 836.2ZM1708.58 855V780.9H1719.38V792.1L1718.08 789.5C1720.08 786.433 1722.75 784.033 1726.08 782.3C1729.42 780.567 1733.22 779.7 1737.48 779.7C1742.62 779.7 1747.22 780.933 1751.28 783.4C1755.42 785.867 1758.65 789.233 1760.98 793.5C1763.38 797.767 1764.58 802.567 1764.58 807.9C1764.58 813.233 1763.38 818.033 1760.98 822.3C1758.65 826.567 1755.45 829.967 1751.38 832.5C1747.32 834.967 1742.68 836.2 1737.48 836.2C1733.28 836.2 1729.45 835.333 1725.98 833.6C1722.58 831.867 1719.95 829.367 1718.08 826.1L1719.88 824V855H1708.58ZM1736.38 825.7C1739.58 825.7 1742.42 824.933 1744.88 823.4C1747.35 821.867 1749.28 819.767 1750.68 817.1C1752.15 814.367 1752.88 811.3 1752.88 807.9C1752.88 804.5 1752.15 801.467 1750.68 798.8C1749.28 796.133 1747.35 794.033 1744.88 792.5C1742.42 790.967 1739.58 790.2 1736.38 790.2C1733.25 790.2 1730.42 790.967 1727.88 792.5C1725.42 794.033 1723.45 796.133 1721.98 798.8C1720.58 801.467 1719.88 804.5 1719.88 807.9C1719.88 811.3 1720.58 814.367 1721.98 817.1C1723.45 819.767 1725.42 821.867 1727.88 823.4C1730.42 824.933 1733.25 825.7 1736.38 825.7ZM1788.78 836.2C1785.11 836.2 1781.88 835.567 1779.08 834.3C1776.34 832.967 1774.21 831.167 1772.68 828.9C1771.14 826.567 1770.38 823.833 1770.38 820.7C1770.38 817.767 1771.01 815.133 1772.28 812.8C1773.61 810.467 1775.64 808.5 1778.38 806.9C1781.11 805.3 1784.54 804.167 1788.68 803.5L1807.48 800.4V809.3L1790.88 812.2C1787.88 812.733 1785.68 813.7 1784.28 815.1C1782.88 816.433 1782.18 818.167 1782.18 820.3C1782.18 822.367 1782.94 824.067 1784.48 825.4C1786.08 826.667 1788.11 827.3 1790.58 827.3C1793.64 827.3 1796.31 826.633 1798.58 825.3C1800.91 823.967 1802.71 822.2 1803.98 820C1805.24 817.733 1805.88 815.233 1805.88 812.5V798.6C1805.88 795.933 1804.88 793.767 1802.88 792.1C1800.94 790.367 1798.34 789.5 1795.08 789.5C1792.08 789.5 1789.44 790.3 1787.18 791.9C1784.98 793.433 1783.34 795.433 1782.28 797.9L1772.88 793.2C1773.88 790.533 1775.51 788.2 1777.78 786.2C1780.04 784.133 1782.68 782.533 1785.68 781.4C1788.74 780.267 1791.98 779.7 1795.38 779.7C1799.64 779.7 1803.41 780.5 1806.68 782.1C1810.01 783.7 1812.58 785.933 1814.38 788.8C1816.24 791.6 1817.18 794.867 1817.18 798.6V835H1806.38V825.2L1808.68 825.5C1807.41 827.7 1805.78 829.6 1803.78 831.2C1801.84 832.8 1799.61 834.033 1797.08 834.9C1794.61 835.767 1791.84 836.2 1788.78 836.2ZM1827.39 835V780.9H1838.19V791.8L1837.19 790.2C1838.39 786.667 1840.32 784.133 1842.99 782.6C1845.66 781 1848.86 780.2 1852.59 780.2H1855.89V790.5H1851.19C1847.46 790.5 1844.42 791.667 1842.09 794C1839.82 796.267 1838.69 799.533 1838.69 803.8V835H1827.39ZM1885 835.6C1879.33 835.6 1874.93 834 1871.8 830.8C1868.66 827.6 1867.1 823.1 1867.1 817.3V791.1H1857.6V780.9H1859.1C1861.63 780.9 1863.6 780.167 1865 778.7C1866.4 777.233 1867.1 775.233 1867.1 772.7V768.5H1878.4V780.9H1890.7V791.1H1878.4V816.8C1878.4 818.667 1878.7 820.267 1879.3 821.6C1879.9 822.867 1880.86 823.867 1882.2 824.6C1883.53 825.267 1885.26 825.6 1887.4 825.6C1887.93 825.6 1888.53 825.567 1889.2 825.5C1889.86 825.433 1890.5 825.367 1891.1 825.3V835C1890.16 835.133 1889.13 835.267 1888 835.4C1886.86 835.533 1885.86 835.6 1885 835.6ZM1899.12 835V780.9H1909.92V791.5L1908.62 790.1C1909.96 786.7 1912.09 784.133 1915.02 782.4C1917.96 780.6 1921.36 779.7 1925.22 779.7C1929.22 779.7 1932.76 780.567 1935.82 782.3C1938.89 784.033 1941.29 786.433 1943.02 789.5C1944.76 792.567 1945.62 796.1 1945.62 800.1V835H1934.42V803.1C1934.42 800.367 1933.92 798.067 1932.92 796.2C1931.92 794.267 1930.49 792.8 1928.62 791.8C1926.82 790.733 1924.76 790.2 1922.42 790.2C1920.09 790.2 1917.99 790.733 1916.12 791.8C1914.32 792.8 1912.92 794.267 1911.92 796.2C1910.92 798.133 1910.42 800.433 1910.42 803.1V835H1899.12ZM1980.12 836.2C1974.72 836.2 1969.92 834.967 1965.72 832.5C1961.58 829.967 1958.35 826.567 1956.02 822.3C1953.68 817.967 1952.52 813.133 1952.52 807.8C1952.52 802.333 1953.68 797.5 1956.02 793.3C1958.42 789.1 1961.62 785.8 1965.62 783.4C1969.62 780.933 1974.15 779.7 1979.22 779.7C1983.28 779.7 1986.92 780.4 1990.12 781.8C1993.32 783.2 1996.02 785.133 1998.22 787.6C2000.42 790 2002.08 792.767 2003.22 795.9C2004.42 799.033 2005.02 802.367 2005.02 805.9C2005.02 806.767 2004.98 807.667 2004.92 808.6C2004.85 809.533 2004.72 810.4 2004.52 811.2H1961.42V802.2H1998.12L1992.72 806.3C1993.38 803.033 1993.15 800.133 1992.02 797.6C1990.95 795 1989.28 792.967 1987.02 791.5C1984.82 789.967 1982.22 789.2 1979.22 789.2C1976.22 789.2 1973.55 789.967 1971.22 791.5C1968.88 792.967 1967.08 795.1 1965.82 797.9C1964.55 800.633 1964.05 803.967 1964.32 807.9C1963.98 811.567 1964.48 814.767 1965.82 817.5C1967.22 820.233 1969.15 822.367 1971.62 823.9C1974.15 825.433 1977.02 826.2 1980.22 826.2C1983.48 826.2 1986.25 825.467 1988.52 824C1990.85 822.533 1992.68 820.633 1994.02 818.3L2003.22 822.8C2002.15 825.333 2000.48 827.633 1998.22 829.7C1996.02 831.7 1993.35 833.3 1990.22 834.5C1987.15 835.633 1983.78 836.2 1980.12 836.2ZM2013.05 835V780.9H2023.85V791.8L2022.85 790.2C2024.05 786.667 2025.98 784.133 2028.65 782.6C2031.31 781 2034.51 780.2 2038.25 780.2H2041.55V790.5H2036.85C2033.11 790.5 2030.08 791.667 2027.75 794C2025.48 796.267 2024.35 799.533 2024.35 803.8V835H2013.05Z" fill="#202938"/>
</svg>
